<mxfile host="app.diagrams.net" modified="2021-11-30T11:19:59.245Z" agent="5.0 (Windows NT 10.0; WOW64) AppleWebKit/537.36 (KHTML, like Gecko) Chrome/96.0.4664.45 Safari/537.36" etag="Ttk_NaYpT8FjKCwG23nq" version="15.8.3" type="github">
  <diagram name="Page-1" id="929967ad-93f9-6ef4-fab6-5d389245f69c">
    <mxGraphModel dx="4336.5" dy="153" grid="1" gridSize="10" guides="1" tooltips="1" connect="1" arrows="1" fold="1" page="1" pageScale="1.5" pageWidth="1169" pageHeight="826" background="none" math="0" shadow="0">
      <root>
        <mxCell id="0" style=";html=1;" />
        <mxCell id="1" style=";html=1;" parent="0" />
        <mxCell id="vrOg_hvAR8X6UsYTPUph-13" value="Interface com o usuário" style="swimlane;whiteSpace=wrap" vertex="1" parent="1">
          <mxGeometry x="-1570" y="1328" width="610" height="1112" as="geometry" />
        </mxCell>
        <mxCell id="vrOg_hvAR8X6UsYTPUph-72" value="&amp;lt;&amp;lt;Função&amp;gt;&amp;gt;&lt;br&gt;Disp Temp cabine" style="html=1;shape=mxgraph.sysml.objFlowR;whiteSpace=wrap;" vertex="1" parent="vrOg_hvAR8X6UsYTPUph-13">
          <mxGeometry x="190" y="272" width="180" height="50" as="geometry" />
        </mxCell>
        <mxCell id="vrOg_hvAR8X6UsYTPUph-105" value="&amp;lt;&amp;lt;Função&amp;gt;&amp;gt;&lt;br&gt;BK - Velocidade" style="html=1;shape=mxgraph.sysml.objFlowR;whiteSpace=wrap;" vertex="1" parent="vrOg_hvAR8X6UsYTPUph-13">
          <mxGeometry x="220" y="712" width="190" height="50" as="geometry" />
        </mxCell>
        <mxCell id="vrOg_hvAR8X6UsYTPUph-108" value="&amp;lt;&amp;lt;Função&amp;gt;&amp;gt;&lt;br&gt;BP - Direcionador de ar" style="html=1;shape=mxgraph.sysml.objFlowR;whiteSpace=wrap;" vertex="1" parent="vrOg_hvAR8X6UsYTPUph-13">
          <mxGeometry x="220" y="842" width="190" height="50" as="geometry" />
        </mxCell>
        <mxCell id="vrOg_hvAR8X6UsYTPUph-73" value="&amp;lt;&amp;lt;Função&amp;gt;&amp;gt;&lt;br&gt;Disp Umidade" style="html=1;shape=mxgraph.sysml.objFlowR;whiteSpace=wrap;" vertex="1" parent="vrOg_hvAR8X6UsYTPUph-13">
          <mxGeometry x="160" y="332" width="180" height="50" as="geometry" />
        </mxCell>
        <mxCell id="vrOg_hvAR8X6UsYTPUph-64" value="&amp;lt;&amp;lt;Função&amp;gt;&amp;gt;&lt;br&gt;BP-ON/OFF" style="shape=rect;html=1;rounded=1;whiteSpace=wrap;align=center;" vertex="1" parent="vrOg_hvAR8X6UsYTPUph-13">
          <mxGeometry x="110" y="122" width="180" height="50" as="geometry" />
        </mxCell>
        <mxCell id="vrOg_hvAR8X6UsYTPUph-62" value="Unidade de conforto térmico" style="swimlane;whiteSpace=wrap" vertex="1" parent="1">
          <mxGeometry x="-960" y="1328" width="900" height="1111" as="geometry" />
        </mxCell>
        <mxCell id="vrOg_hvAR8X6UsYTPUph-71" value="" style="shape=rect;html=1;fillColor=#000000;verticalLabelPosition=bottom;verticalAlignment=top;" vertex="1" parent="vrOg_hvAR8X6UsYTPUph-62">
          <mxGeometry x="346" y="232" width="4" height="58" as="geometry" />
        </mxCell>
        <mxCell id="vrOg_hvAR8X6UsYTPUph-86" value="" style="shape=rect;html=1;fillColor=#000000;verticalLabelPosition=bottom;verticalAlignment=top;" vertex="1" parent="vrOg_hvAR8X6UsYTPUph-62">
          <mxGeometry x="300" y="432" width="4" height="50" as="geometry" />
        </mxCell>
        <mxCell id="vrOg_hvAR8X6UsYTPUph-88" style="edgeStyle=orthogonalEdgeStyle;rounded=0;orthogonalLoop=1;jettySize=auto;html=1;exitX=0;exitY=1;exitDx=0;exitDy=0;entryX=0;entryY=0.25;entryDx=0;entryDy=0;" edge="1" parent="vrOg_hvAR8X6UsYTPUph-62" source="vrOg_hvAR8X6UsYTPUph-71" target="vrOg_hvAR8X6UsYTPUph-86">
          <mxGeometry relative="1" as="geometry">
            <Array as="points">
              <mxPoint x="280" y="282" />
              <mxPoint x="280" y="444" />
            </Array>
          </mxGeometry>
        </mxCell>
        <mxCell id="vrOg_hvAR8X6UsYTPUph-89" value="TcabAtual" style="edgeLabel;html=1;align=center;verticalAlign=middle;resizable=0;points=[];" vertex="1" connectable="0" parent="vrOg_hvAR8X6UsYTPUph-88">
          <mxGeometry x="-0.1813" y="-2" relative="1" as="geometry">
            <mxPoint as="offset" />
          </mxGeometry>
        </mxCell>
        <mxCell id="vrOg_hvAR8X6UsYTPUph-104" style="edgeStyle=orthogonalEdgeStyle;rounded=0;orthogonalLoop=1;jettySize=auto;html=1;exitX=1;exitY=0.5;exitDx=0;exitDy=0;entryX=0;entryY=0.5;entryDx=0;entryDy=0;startArrow=none;startFill=0;endArrow=classic;endFill=1;" edge="1" parent="vrOg_hvAR8X6UsYTPUph-62" source="vrOg_hvAR8X6UsYTPUph-94" target="vrOg_hvAR8X6UsYTPUph-93">
          <mxGeometry relative="1" as="geometry" />
        </mxCell>
        <mxCell id="vrOg_hvAR8X6UsYTPUph-94" value="" style="shape=rect;html=1;fillColor=#000000;verticalLabelPosition=bottom;verticalAlignment=top;" vertex="1" parent="vrOg_hvAR8X6UsYTPUph-62">
          <mxGeometry x="500" y="592" width="4" height="50" as="geometry" />
        </mxCell>
        <mxCell id="vrOg_hvAR8X6UsYTPUph-93" value="&amp;lt;&amp;lt;Função&amp;gt;&amp;gt;&lt;br&gt;Ventilação" style="html=1;shape=mxgraph.sysml.objFlowL;whiteSpace=wrap;" vertex="1" parent="vrOg_hvAR8X6UsYTPUph-62">
          <mxGeometry x="610" y="592" width="190" height="50" as="geometry" />
        </mxCell>
        <mxCell id="vrOg_hvAR8X6UsYTPUph-100" style="edgeStyle=orthogonalEdgeStyle;rounded=0;orthogonalLoop=1;jettySize=auto;html=1;exitX=1;exitY=0.5;exitDx=0;exitDy=0;entryX=-0.308;entryY=0.101;entryDx=0;entryDy=0;startArrow=none;startFill=0;endArrow=classic;endFill=1;entryPerimeter=0;" edge="1" parent="vrOg_hvAR8X6UsYTPUph-62" source="vrOg_hvAR8X6UsYTPUph-96" target="vrOg_hvAR8X6UsYTPUph-94">
          <mxGeometry relative="1" as="geometry" />
        </mxCell>
        <mxCell id="vrOg_hvAR8X6UsYTPUph-96" value="Tcab Atual&amp;gt;&amp;gt; Tdesejada" style="rhombus;whiteSpace=wrap;html=1;" vertex="1" parent="vrOg_hvAR8X6UsYTPUph-62">
          <mxGeometry x="270" y="572" width="120" height="49" as="geometry" />
        </mxCell>
        <mxCell id="vrOg_hvAR8X6UsYTPUph-97" style="edgeStyle=orthogonalEdgeStyle;rounded=0;orthogonalLoop=1;jettySize=auto;html=1;startArrow=classic;startFill=1;endArrow=none;endFill=0;entryX=1;entryY=0.8;entryDx=0;entryDy=0;entryPerimeter=0;exitX=0.5;exitY=0;exitDx=0;exitDy=0;" edge="1" parent="vrOg_hvAR8X6UsYTPUph-62" source="vrOg_hvAR8X6UsYTPUph-96" target="vrOg_hvAR8X6UsYTPUph-86">
          <mxGeometry relative="1" as="geometry">
            <mxPoint x="414" y="472" as="targetPoint" />
            <mxPoint x="304" y="562" as="sourcePoint" />
            <Array as="points">
              <mxPoint x="330" y="472" />
            </Array>
          </mxGeometry>
        </mxCell>
        <mxCell id="vrOg_hvAR8X6UsYTPUph-103" value="Sim" style="text;html=1;align=center;verticalAlign=middle;resizable=0;points=[];autosize=1;strokeColor=none;fillColor=none;" vertex="1" parent="vrOg_hvAR8X6UsYTPUph-62">
          <mxGeometry x="420" y="572" width="40" height="20" as="geometry" />
        </mxCell>
        <mxCell id="vrOg_hvAR8X6UsYTPUph-110" value="&amp;lt;&amp;lt;Função&amp;gt;&amp;gt;&lt;br&gt;Distribuição de ar" style="html=1;shape=mxgraph.sysml.objFlowL;whiteSpace=wrap;" vertex="1" parent="vrOg_hvAR8X6UsYTPUph-62">
          <mxGeometry x="560" y="842" width="190" height="50" as="geometry" />
        </mxCell>
        <mxCell id="vrOg_hvAR8X6UsYTPUph-113" value="&amp;lt;&amp;lt;Função&amp;gt;&amp;gt;&lt;br&gt;Recirculação" style="html=1;shape=mxgraph.sysml.objFlowL;whiteSpace=wrap;" vertex="1" parent="vrOg_hvAR8X6UsYTPUph-62">
          <mxGeometry x="510" y="982" width="190" height="50" as="geometry" />
        </mxCell>
        <mxCell id="vrOg_hvAR8X6UsYTPUph-117" value="" style="edgeStyle=orthogonalEdgeStyle;rounded=0;orthogonalLoop=1;jettySize=auto;html=1;startArrow=classic;startFill=1;endArrow=none;endFill=0;" edge="1" parent="vrOg_hvAR8X6UsYTPUph-62" source="vrOg_hvAR8X6UsYTPUph-116">
          <mxGeometry relative="1" as="geometry">
            <mxPoint x="50" y="362" as="targetPoint" />
          </mxGeometry>
        </mxCell>
        <mxCell id="vrOg_hvAR8X6UsYTPUph-121" value="Sim" style="edgeStyle=orthogonalEdgeStyle;rounded=0;orthogonalLoop=1;jettySize=auto;html=1;entryX=0;entryY=0.5;entryDx=0;entryDy=0;entryPerimeter=0;startArrow=none;startFill=0;endArrow=classic;endFill=1;" edge="1" parent="vrOg_hvAR8X6UsYTPUph-62" source="vrOg_hvAR8X6UsYTPUph-116" target="vrOg_hvAR8X6UsYTPUph-113">
          <mxGeometry relative="1" as="geometry" />
        </mxCell>
        <mxCell id="vrOg_hvAR8X6UsYTPUph-116" value="Uatual&amp;gt;UmidaddeMin" style="rhombus;whiteSpace=wrap;html=1;" vertex="1" parent="vrOg_hvAR8X6UsYTPUph-62">
          <mxGeometry x="190" y="982" width="140" height="49" as="geometry" />
        </mxCell>
        <mxCell id="vrOg_hvAR8X6UsYTPUph-122" value="" style="html=1;shape=mxgraph.sysml.actFinal;strokeWidth=2;verticalLabelPosition=bottom;verticalAlignment=top;" vertex="1" parent="vrOg_hvAR8X6UsYTPUph-62">
          <mxGeometry x="130" y="1052" width="40" height="40" as="geometry" />
        </mxCell>
        <mxCell id="vrOg_hvAR8X6UsYTPUph-67" value="Status = ON" style="edgeStyle=orthogonalEdgeStyle;rounded=0;orthogonalLoop=1;jettySize=auto;html=1;" edge="1" parent="1" source="vrOg_hvAR8X6UsYTPUph-64">
          <mxGeometry relative="1" as="geometry">
            <mxPoint x="-770" y="1470" as="targetPoint" />
            <Array as="points">
              <mxPoint x="-1010" y="1470" />
              <mxPoint x="-1010" y="1470" />
            </Array>
          </mxGeometry>
        </mxCell>
        <mxCell id="vrOg_hvAR8X6UsYTPUph-70" style="edgeStyle=orthogonalEdgeStyle;rounded=0;orthogonalLoop=1;jettySize=auto;html=1;entryX=1;entryY=0.5;entryDx=0;entryDy=0;" edge="1" parent="1" source="vrOg_hvAR8X6UsYTPUph-68" target="vrOg_hvAR8X6UsYTPUph-71">
          <mxGeometry relative="1" as="geometry">
            <mxPoint x="-580" y="1585" as="targetPoint" />
            <Array as="points">
              <mxPoint x="-550" y="1470" />
              <mxPoint x="-550" y="1589" />
            </Array>
          </mxGeometry>
        </mxCell>
        <mxCell id="vrOg_hvAR8X6UsYTPUph-68" value="&amp;lt;&amp;lt;Função&amp;gt;&amp;gt;&lt;br&gt;Leitura de dados" style="html=1;shape=mxgraph.sysml.objFlowR;whiteSpace=wrap;" vertex="1" parent="1">
          <mxGeometry x="-770" y="1445" width="180" height="50" as="geometry" />
        </mxCell>
        <mxCell id="vrOg_hvAR8X6UsYTPUph-69" value="&amp;lt;&amp;lt;Função&amp;gt;&amp;gt;&lt;br&gt;Disp Temp externa" style="html=1;shape=mxgraph.sysml.objFlowR;whiteSpace=wrap;" vertex="1" parent="1">
          <mxGeometry x="-1210" y="1550" width="180" height="50" as="geometry" />
        </mxCell>
        <mxCell id="vrOg_hvAR8X6UsYTPUph-74" style="edgeStyle=orthogonalEdgeStyle;rounded=0;orthogonalLoop=1;jettySize=auto;html=1;exitX=0;exitY=0.25;exitDx=0;exitDy=0;entryX=1;entryY=0.5;entryDx=0;entryDy=0;entryPerimeter=0;" edge="1" parent="1" source="vrOg_hvAR8X6UsYTPUph-71" target="vrOg_hvAR8X6UsYTPUph-69">
          <mxGeometry relative="1" as="geometry">
            <Array as="points">
              <mxPoint x="-620" y="1575" />
            </Array>
          </mxGeometry>
        </mxCell>
        <mxCell id="vrOg_hvAR8X6UsYTPUph-75" value="ToutAtual" style="edgeLabel;html=1;align=center;verticalAlign=middle;resizable=0;points=[];" vertex="1" connectable="0" parent="vrOg_hvAR8X6UsYTPUph-74">
          <mxGeometry x="0.2217" y="1" relative="1" as="geometry">
            <mxPoint as="offset" />
          </mxGeometry>
        </mxCell>
        <mxCell id="vrOg_hvAR8X6UsYTPUph-76" style="edgeStyle=orthogonalEdgeStyle;rounded=0;orthogonalLoop=1;jettySize=auto;html=1;exitX=0;exitY=0.5;exitDx=0;exitDy=0;entryX=1;entryY=0.5;entryDx=0;entryDy=0;entryPerimeter=0;" edge="1" parent="1" source="vrOg_hvAR8X6UsYTPUph-71" target="vrOg_hvAR8X6UsYTPUph-72">
          <mxGeometry relative="1" as="geometry">
            <Array as="points">
              <mxPoint x="-910" y="1585" />
              <mxPoint x="-910" y="1625" />
            </Array>
          </mxGeometry>
        </mxCell>
        <mxCell id="vrOg_hvAR8X6UsYTPUph-77" value="TcabAtual" style="edgeLabel;html=1;align=center;verticalAlign=middle;resizable=0;points=[];" vertex="1" connectable="0" parent="vrOg_hvAR8X6UsYTPUph-76">
          <mxGeometry x="0.4359" y="1" relative="1" as="geometry">
            <mxPoint as="offset" />
          </mxGeometry>
        </mxCell>
        <mxCell id="vrOg_hvAR8X6UsYTPUph-78" style="edgeStyle=orthogonalEdgeStyle;rounded=0;orthogonalLoop=1;jettySize=auto;html=1;exitX=1;exitY=0.75;exitDx=0;exitDy=0;entryX=1;entryY=0.5;entryDx=0;entryDy=0;entryPerimeter=0;" edge="1" parent="1" source="vrOg_hvAR8X6UsYTPUph-71" target="vrOg_hvAR8X6UsYTPUph-73">
          <mxGeometry relative="1" as="geometry">
            <Array as="points">
              <mxPoint x="-610" y="1598" />
              <mxPoint x="-900" y="1598" />
              <mxPoint x="-900" y="1685" />
            </Array>
          </mxGeometry>
        </mxCell>
        <mxCell id="vrOg_hvAR8X6UsYTPUph-79" value="UAtual" style="edgeLabel;html=1;align=center;verticalAlign=middle;resizable=0;points=[];" vertex="1" connectable="0" parent="vrOg_hvAR8X6UsYTPUph-78">
          <mxGeometry x="0.193" y="1" relative="1" as="geometry">
            <mxPoint as="offset" />
          </mxGeometry>
        </mxCell>
        <mxCell id="vrOg_hvAR8X6UsYTPUph-90" value="Tdesejada" style="edgeStyle=orthogonalEdgeStyle;rounded=0;orthogonalLoop=1;jettySize=auto;html=1;entryX=0;entryY=0.75;entryDx=0;entryDy=0;" edge="1" parent="1" source="vrOg_hvAR8X6UsYTPUph-81" target="vrOg_hvAR8X6UsYTPUph-86">
          <mxGeometry x="-0.0145" y="-145" relative="1" as="geometry">
            <mxPoint x="-145" y="146" as="offset" />
          </mxGeometry>
        </mxCell>
        <mxCell id="vrOg_hvAR8X6UsYTPUph-81" value="&amp;lt;&amp;lt;Função&amp;gt;&amp;gt;&lt;br&gt;BK - Temperatura" style="html=1;shape=mxgraph.sysml.objFlowR;whiteSpace=wrap;" vertex="1" parent="1">
          <mxGeometry x="-1340" y="1780" width="190" height="50" as="geometry" />
        </mxCell>
        <mxCell id="vrOg_hvAR8X6UsYTPUph-83" value="&amp;lt;&amp;lt;Função&amp;gt;&amp;gt;&lt;br&gt;Controle de Temperatura&amp;nbsp;" style="html=1;shape=mxgraph.sysml.objFlowL;whiteSpace=wrap;" vertex="1" parent="1">
          <mxGeometry x="-580" y="1760" width="190" height="50" as="geometry" />
        </mxCell>
        <mxCell id="vrOg_hvAR8X6UsYTPUph-92" style="edgeStyle=orthogonalEdgeStyle;rounded=0;orthogonalLoop=1;jettySize=auto;html=1;entryX=0;entryY=0.5;entryDx=0;entryDy=0;entryPerimeter=0;" edge="1" parent="1" source="vrOg_hvAR8X6UsYTPUph-86" target="vrOg_hvAR8X6UsYTPUph-83">
          <mxGeometry relative="1" as="geometry" />
        </mxCell>
        <mxCell id="vrOg_hvAR8X6UsYTPUph-1" value="&lt;p style=&quot;margin: 0px ; margin-top: 4px ; margin-left: 10px ; text-align: left&quot;&gt;&lt;b&gt;act&lt;/b&gt; [activity] AC Logical decomposition [AC act Logical]&lt;/p&gt;" style="html=1;strokeWidth=1;shape=mxgraph.sysml.package;html=1;overflow=fill;whiteSpace=wrap;fillColor=none;gradientColor=none;fontSize=12;align=center;labelX=373.98;" vertex="1" parent="1">
          <mxGeometry x="-1730" y="1250" width="1710" height="1210" as="geometry" />
        </mxCell>
        <mxCell id="vrOg_hvAR8X6UsYTPUph-106" style="edgeStyle=orthogonalEdgeStyle;rounded=0;orthogonalLoop=1;jettySize=auto;html=1;entryX=0;entryY=0.75;entryDx=0;entryDy=0;startArrow=none;startFill=0;endArrow=classic;endFill=1;" edge="1" parent="1" source="vrOg_hvAR8X6UsYTPUph-105" target="vrOg_hvAR8X6UsYTPUph-94">
          <mxGeometry relative="1" as="geometry" />
        </mxCell>
        <mxCell id="vrOg_hvAR8X6UsYTPUph-107" value="Vcdesejada" style="edgeLabel;html=1;align=center;verticalAlign=middle;resizable=0;points=[];" vertex="1" connectable="0" parent="vrOg_hvAR8X6UsYTPUph-106">
          <mxGeometry x="-0.3296" y="-4" relative="1" as="geometry">
            <mxPoint x="1" as="offset" />
          </mxGeometry>
        </mxCell>
        <mxCell id="vrOg_hvAR8X6UsYTPUph-111" style="edgeStyle=orthogonalEdgeStyle;rounded=0;orthogonalLoop=1;jettySize=auto;html=1;exitX=1;exitY=0.5;exitDx=0;exitDy=0;exitPerimeter=0;entryX=0;entryY=0.5;entryDx=0;entryDy=0;entryPerimeter=0;startArrow=none;startFill=0;endArrow=classic;endFill=1;" edge="1" parent="1" source="vrOg_hvAR8X6UsYTPUph-108" target="vrOg_hvAR8X6UsYTPUph-110">
          <mxGeometry relative="1" as="geometry" />
        </mxCell>
        <mxCell id="vrOg_hvAR8X6UsYTPUph-112" value="PosDesejada" style="edgeLabel;html=1;align=center;verticalAlign=middle;resizable=0;points=[];" vertex="1" connectable="0" parent="vrOg_hvAR8X6UsYTPUph-111">
          <mxGeometry x="0.0468" y="-3" relative="1" as="geometry">
            <mxPoint x="1" as="offset" />
          </mxGeometry>
        </mxCell>
        <mxCell id="vrOg_hvAR8X6UsYTPUph-123" style="edgeStyle=orthogonalEdgeStyle;rounded=0;orthogonalLoop=1;jettySize=auto;html=1;entryX=0;entryY=0.5;entryDx=0;entryDy=0;entryPerimeter=0;startArrow=none;startFill=0;endArrow=classic;endFill=1;" edge="1" parent="1" source="vrOg_hvAR8X6UsYTPUph-64" target="vrOg_hvAR8X6UsYTPUph-122">
          <mxGeometry relative="1" as="geometry">
            <Array as="points">
              <mxPoint x="-1440" y="2400" />
            </Array>
          </mxGeometry>
        </mxCell>
        <mxCell id="vrOg_hvAR8X6UsYTPUph-124" value="Status = OFF" style="edgeLabel;html=1;align=center;verticalAlign=middle;resizable=0;points=[];" vertex="1" connectable="0" parent="vrOg_hvAR8X6UsYTPUph-123">
          <mxGeometry x="0.3503" relative="1" as="geometry">
            <mxPoint x="-1" as="offset" />
          </mxGeometry>
        </mxCell>
        <mxCell id="vrOg_hvAR8X6UsYTPUph-129" style="edgeStyle=orthogonalEdgeStyle;rounded=0;orthogonalLoop=1;jettySize=auto;html=1;startArrow=none;startFill=0;endArrow=classic;endFill=1;" edge="1" parent="1" source="vrOg_hvAR8X6UsYTPUph-126">
          <mxGeometry relative="1" as="geometry">
            <mxPoint x="-1460" y="1470" as="targetPoint" />
            <Array as="points">
              <mxPoint x="-1460" y="1470" />
            </Array>
          </mxGeometry>
        </mxCell>
        <mxCell id="vrOg_hvAR8X6UsYTPUph-126" value="c" style="ellipse;shape=startState;fillColor=#000000;strokeColor=#ff0000;" vertex="1" parent="1">
          <mxGeometry x="-1650" y="1455" width="30" height="30" as="geometry" />
        </mxCell>
      </root>
    </mxGraphModel>
  </diagram>
</mxfile>
